<?xml version="1.0" encoding="utf-8"?>
<!-- Generator: Adobe Illustrator 19.1.1, SVG Export Plug-In . SVG Version: 6.00 Build 0)  -->
<svg version="1.1" id="Layer_1" xmlns="http://www.w3.org/2000/svg" xmlns:xlink="http://www.w3.org/1999/xlink" x="0px" y="0px"
	 viewBox="0 0 1466 360" style="enable-background:new 0 0 1466 360;" xml:space="preserve">
<style type="text/css">
	.st0{fill:#FFFFFF;}
	.st1{fill:#F57E20;}
</style>
<path class="st0" d="M134.3,226.8c-35.3,0-64.2-28.9-64.2-64.2c0-35.3,28.9-64.2,64.2-64.2c35.3,0,64.2,28.9,64.2,64.2
	C198.5,197.9,169.6,226.8,134.3,226.8 M134.3,72.8c-49.4,0-89.8,40.4-89.8,89.8c0,49.4,40.4,89.8,89.8,89.8c25,0,48.1-10.3,64.2-27
	v14.1c0,7.1,5.8,12.8,12.8,12.8s12.8-5.8,12.8-12.8v-77C224.2,113.2,183.8,72.8,134.3,72.8"/>
<path class="st1" d="M1143,239V85c0-7.1-5.9-12.8-13-12.8c-7.1,0-13,5.8-13,12.8V239c0,7.1,5.9,12.8,13,12.8
	C1137.1,251.8,1143,246,1143,239z"/>
<path class="st0" d="M615.5,226.8c-35.3,0-64.2-28.9-64.2-64.2c0-35.3,28.9-64.2,64.2-64.2c35.3,0,64.2,28.9,64.2,64.2
	C679.6,197.9,650.8,226.8,615.5,226.8 M615.5,72.8c-49.4,0-89.8,40.4-89.8,89.8c0,49.4,40.4,89.8,89.8,89.8
	c49.4,0,89.8-40.4,89.8-89.8C705.3,113.2,664.9,72.8,615.5,72.8"/>
<path class="st1" d="M1004.8,226.8c-35.3,0-64.2-28.9-64.2-64.2c0-35.3,28.9-64.2,64.2-64.2c35.3,0,64.2,28.9,64.2,64.2
	C1069,197.9,1040.1,226.8,1004.8,226.8 M1004.8,72.8c-49.4,0-89.8,40.4-89.8,89.8c0,49.4,40.4,89.8,89.8,89.8
	c49.4,0,89.8-40.4,89.8-89.8C1094.6,113.2,1054.2,72.8,1004.8,72.8"/>
<path class="st1" d="M810.1,72.8c-49.4,0-89.8,40.4-89.8,89.8c0,0.1,0,0.3,0,0.4v153.3c0,7.1,5.6,12.8,12.7,12.8
	c7.1,0,12.7-5.8,12.7-12.8V225c16.4,16.9,39.2,27.4,64.5,27.4c49.4,0,89.8-40.4,89.8-89.8C900,113.2,859.6,72.8,810.1,72.8z
	 M810.1,226.8c-35.3,0-64.2-28.9-64.2-64.2c0-35.3,28.9-64.2,64.2-64.2c35.3,0,64.2,28.9,64.2,64.2
	C874.3,197.9,845.4,226.8,810.1,226.8z"/>
<path class="st0" d="M514.6,210.3c-6.4-3.8-14.1-1.3-17.3,4.5c-4.5,7.7-12.8,12.8-21.8,12.8c-14.1,0-25.7-11.6-25.7-25.7V98.7h52.3
	c7.1,0,12.8-5.6,12.8-12.7c0-7.1-5.8-12.7-12.8-12.7h-52.3V49c0-7.1-5.8-12.8-12.8-12.8c-7.1,0-12.8,5.8-12.8,12.8v24.3H410
	c-7.1,0-12.8,5.6-12.8,12.7c0,7.1,5.8,12.7,12.8,12.7h14.1v103.3c0,28.2,23.1,51.3,51.3,51.3c19.2,0,35.3-10.3,44.3-25.7
	C522.9,221.2,520.3,213.5,514.6,210.3z"/>
<path class="st1" d="M1421.3,209.6c-6.4-3.8-14.1-1.3-17.3,4.5c-4.5,7.7-12.8,12.8-21.8,12.8c-14.1,0-25.7-11.6-25.7-25.7V98h52.3
	c7.1,0,12.8-5.6,12.8-12.7c0-7.1-5.8-12.7-12.8-12.7h-52.3V48.3c0-7.1-5.8-12.8-12.8-12.8c-7.1,0-12.8,5.8-12.8,12.8v24.3h-14.1
	c-7.1,0-12.8,5.6-12.8,12.7c0,7.1,5.8,12.7,12.8,12.7h14.1v103.3c0,28.2,23.1,51.3,51.3,51.3c19.2,0,35.3-10.3,44.3-25.7
	C1429.6,220.6,1427.1,212.8,1421.3,209.6z"/>
<path class="st1" d="M1197.6,130.3c0-18.7,18.3-33.1,37.5-32.5c19.9,0.6,35.4,17.4,35.4,37.3v104.6c0,7,5.7,12.7,12.7,12.7
	s12.7-5.7,12.7-12.7V134.2c0-34.5-28.4-61.8-63-61.8c-8.6,0-25.4,4.1-35.4,16.5c0,0,0-4.1,0-4.1c0-6.8-5.3-12.2-12.6-12.2
	c-6.7,0-12.7,5.5-12.7,12.3v154.8c0,7,5.7,12.7,12.7,12.7s12.7-5.7,12.7-12.7V130.3z"/>
<path class="st0" d="M348.5,194.3c0,18.7-18.3,33.1-37.5,32.5c-19.9-0.6-35.4-17.4-35.4-37.3V85c0-7-5.7-12.7-12.7-12.7
	c-7,0-12.7,5.7-12.7,12.7v105.4c0,34.5,28.4,61.8,63,61.8c8.6,0,25.4-4.1,35.4-16.5c0,0,0,4.1,0,4.1c0,6.8,5.3,12.2,12.6,12.2
	c6.7,0,12.7-5.5,12.7-12.3V85c0-7-5.7-12.7-12.7-12.7c-7,0-12.7,5.7-12.7,12.7V194.3z"/>
</svg>
